<svg width="880" height="582" viewBox="0 0 880 582" fill="none" xmlns="http://www.w3.org/2000/svg">
<g clip-path="url(#clip0)">
<path opacity="0.2" d="M592.627 48.9861C580.433 36.349 567.546 25.7694 554.391 27.1159C535.035 29.0562 516.496 58.7127 507.388 102.261C499.672 139.151 498.721 182.398 495.398 223.337C491.303 273.785 483.463 321.724 475.084 368.609C470.583 393.757 465.835 419.517 465.097 447.124C464.07 485.445 471.258 523.64 482.528 549.157C493.797 574.674 508.773 588.097 523.789 591.032C531.784 592.596 540.136 591.149 547.239 581.665C554.752 571.629 560.227 553.489 567.769 543.604C574.76 534.404 582.936 533.15 590.783 534.345C601.062 535.913 611.19 541.399 620.831 550.621C631.798 561.125 641.998 576.33 652.942 586.976C663.886 597.623 676.113 603.569 687.3 594.679C697.799 586.315 706.112 566.076 713.602 545.544C725.895 511.843 737.107 475.681 747.13 437.406C753.885 411.613 760.171 384.399 763.159 354.332C768.868 296.859 761.011 232.01 743.577 192.752C729.142 160.236 709.757 146.118 690.785 137.554C673.486 129.743 653.483 129.258 637.559 108.901C622.369 89.4564 608.551 65.4953 592.627 48.9861Z" fill="#12D3DF"/>
<path d="M553.475 133.76V199.44C553.473 200.047 553.232 200.628 552.802 201.057C552.373 201.487 551.792 201.728 551.185 201.73H549.555V543.88C549.555 553.348 545.793 562.428 539.098 569.123C532.403 575.818 523.323 579.58 513.855 579.58H300.065C295.378 579.58 290.736 578.656 286.405 576.861C282.075 575.067 278.14 572.437 274.826 569.122C271.512 565.807 268.883 561.872 267.09 557.541C265.297 553.21 264.374 548.568 264.375 543.88V213.73H263.195C262.767 213.731 262.356 213.562 262.052 213.26C261.749 212.958 261.577 212.548 261.575 212.12V174.74C261.575 174.527 261.617 174.317 261.698 174.12C261.78 173.923 261.899 173.745 262.049 173.594C262.2 173.444 262.378 173.325 262.575 173.243C262.772 173.162 262.982 173.12 263.195 173.12H264.375V159.04H263.185C262.736 159.038 262.305 158.858 261.988 158.54C261.672 158.221 261.494 157.789 261.495 157.34V120.47C261.496 120.022 261.675 119.593 261.991 119.276C262.308 118.96 262.737 118.781 263.185 118.78H264.375V99.56H263.165C262.968 99.5603 262.773 99.5217 262.591 99.4464C262.409 99.3711 262.243 99.2606 262.104 99.1213C261.964 98.9819 261.854 98.8165 261.779 98.6344C261.703 98.4523 261.665 98.2571 261.665 98.06V77.94C261.664 77.541 261.822 77.1579 262.103 76.8748C262.384 76.5917 262.766 76.4318 263.165 76.43H264.375V35.69C264.375 26.2245 268.136 17.1469 274.829 10.4538C281.522 3.76067 290.6 0.000375276 300.065 3.05179e-05H513.855C523.322 -1.22739e-05 532.4 3.75984 539.095 10.4527C545.79 17.1456 549.552 26.2235 549.555 35.69V131.47H551.185C551.792 131.472 552.373 131.713 552.802 132.143C553.232 132.572 553.473 133.153 553.475 133.76Z" fill="#2C2B2E"/>
<path d="M417.26 18.3068H382.521C381.117 18.3068 379.979 19.4448 379.979 20.8487V23.8513C379.979 25.2552 381.117 26.3932 382.521 26.3932H417.26C418.664 26.3932 419.802 25.2552 419.802 23.8513V20.8487C419.802 19.4448 418.664 18.3068 417.26 18.3068Z" fill="#E6E8EC"/>
<path d="M430.41 26.9366C432.943 26.9366 434.997 24.8831 434.997 22.35C434.997 19.8169 432.943 17.7633 430.41 17.7633C427.877 17.7633 425.823 19.8169 425.823 22.35C425.823 24.8831 427.877 26.9366 430.41 26.9366Z" fill="#E6E8EC"/>
<path d="M538 34.9642V546.046C538.003 549.369 537.262 552.653 535.826 555.67C534.391 558.686 532.296 561.363 529.688 563.515C525.409 567.056 519.971 569.001 514.349 569H300.651C296.849 569.006 293.102 568.119 289.729 566.415C288.937 566.021 288.169 565.581 287.432 565.097C284.22 562.993 281.589 560.155 279.77 556.834C277.951 553.512 277 549.808 277 546.046V34.9642C277 31.9484 277.612 28.9622 278.8 26.176C279.989 23.3898 281.731 20.8582 283.927 18.7257C286.123 16.5933 288.731 14.9018 291.6 13.7478C294.47 12.5937 297.545 11.9999 300.651 12H332.635V15.9845C332.635 20.9994 334.687 25.8089 338.339 29.3549C341.992 32.901 346.945 34.8931 352.11 34.8932H460.791C465.956 34.8932 470.91 32.901 474.562 29.3549C478.214 25.8089 480.266 20.9994 480.266 15.9845V12H514.349C517.455 11.999 520.531 12.5923 523.401 13.746C526.271 14.8997 528.878 16.5912 531.075 18.7239C533.271 20.8565 535.013 23.3884 536.202 26.175C537.39 28.9616 538.001 31.9482 538 34.9642Z" fill="#EFEFF0"/>
<path d="M550.269 261.4V290.553C550.269 290.553 552.601 323.204 565.429 339.529C565.429 339.529 586.419 369.265 589.334 362.852L585.743 341.736L573.591 330.201L567.178 294.051L565.429 261.4H550.269Z" fill="#E89F71"/>
<path d="M679.124 524.941V546.514L661.633 552.928V527.856L679.124 524.941Z" fill="#E89F71"/>
<path d="M643.558 522.609L655.219 548.846L638.894 555.843L635.395 530.189L643.558 522.609Z" fill="#E89F71"/>
<path d="M672.711 321.455C672.711 321.455 696.033 531.938 687.287 532.521C678.541 533.104 661.633 544.182 661.633 536.602C661.633 529.023 648.222 430.486 648.222 430.486L635.395 379.76V449.727L648.806 529.023C648.806 529.023 635.978 545.931 626.649 536.019L606.826 458.473C606.826 458.473 580.588 340.696 581.754 331.367C581.754 331.367 641.809 280.058 672.711 321.455Z" fill="#313338"/>
<path d="M668.046 547.68C668.046 547.68 672.711 537.768 683.206 544.182L691.952 554.677C691.952 554.677 714.5 573.351 698.5 577.351C682.009 581.473 672.128 577.087 672.128 577.087C672.128 577.087 669.213 575.338 666.88 575.338C664.548 575.338 659.301 571.257 659.301 570.091C659.301 568.925 661.05 548.263 661.05 548.263C661.71 547.942 662.452 547.825 663.18 547.929C663.907 548.033 664.587 548.353 665.131 548.847C666.88 550.596 668.046 547.68 668.046 547.68Z" fill="#52575D"/>
<path d="M633.646 544.182C633.646 544.182 644.724 535.436 649.972 545.348C649.972 545.348 653.276 546.514 653.664 545.348C654.053 544.182 656.968 543.599 656.968 550.013C656.968 556.426 660.134 572.423 657.219 573.006C654.304 573.589 651.389 575.338 651.972 577.67C652.555 580.003 648.806 580.331 635.395 579.748C621.985 579.165 621.402 573.918 621.402 573.918C621.402 573.918 621.402 566.338 624.9 562.257C628.399 558.175 633.646 544.182 633.646 544.182Z" fill="#52575D"/>
<path d="M612.073 162.28C612.073 162.28 609.158 183.854 627.816 191.433C646.473 199.013 586.419 224.084 580.588 209.508C574.758 194.932 581.754 190.267 581.754 190.267C581.754 190.267 587.585 184.437 582.337 168.694L612.073 162.28Z" fill="#E89F71"/>
<path d="M593.415 177.44C607.584 177.44 619.07 165.954 619.07 151.785C619.07 137.617 607.584 126.131 593.415 126.131C579.247 126.131 567.761 137.617 567.761 151.785C567.761 165.954 579.247 177.44 593.415 177.44Z" fill="#E89F71"/>
<path d="M623.151 198.43C623.151 198.43 605.659 207.759 588.751 200.762C571.842 193.765 572.425 224.084 572.425 224.084L581.171 246.824L641.809 240.993L637.727 206.01L623.151 198.43Z" fill="#4E89AE"/>
<path d="M614.461 178.48C617.566 179.139 620.484 180.488 622.998 182.427C625.511 184.367 627.557 186.847 628.982 189.684L656.968 198.43L663.965 208.342L655.802 280.058C655.802 280.058 670.962 294.634 670.962 302.797C670.962 310.96 689.619 338.946 680.291 335.448C670.962 331.95 654.053 319.706 654.053 319.706C654.053 319.706 611.49 321.455 598.08 333.116C584.669 344.777 579.422 341.279 579.422 341.279C579.422 341.279 565.429 280.641 564.846 271.312C564.263 261.983 547.937 206.01 547.937 206.01L577.09 189.684L584.515 181.259L605.076 214.172L623.734 191.433C623.734 191.433 614.516 184.184 614.461 178.48Z" fill="#40A8C4"/>
<path d="M672.711 253.237L676.209 271.895C676.209 271.895 691.952 330.201 689.619 350.024C689.619 350.024 691.369 394.337 681.457 389.089C671.545 383.842 676.792 351.774 676.792 351.774L662.799 294.051L655.219 260.234L672.711 253.237Z" fill="#E89F71"/>
<path d="M658.134 204.844L663.965 208.342C663.965 208.342 686.121 254.403 680.874 257.902C675.626 261.4 652.887 268.98 652.887 268.98L658.134 204.844Z" fill="#40A8C4"/>
<path d="M561.93 206.01L548.228 205.718L545.022 211.257L549.103 267.814L570.093 272.478L561.93 206.01Z" fill="#40A8C4"/>
<path d="M614.306 130.088L618.93 128.407C618.93 128.407 609.262 118.738 595.81 119.579L599.593 115.796C599.593 115.796 590.345 112.433 581.938 121.261C577.518 125.901 572.404 131.356 569.217 137.501H564.265L566.331 141.634L559.098 145.768L566.522 145.025C565.819 148.594 566.061 152.285 567.225 155.731L568.906 160.355C568.906 160.355 575.632 146.903 575.632 145.222V149.425C575.632 149.425 580.256 145.642 580.256 143.12L582.778 146.062L584.039 141.438L599.593 146.062L597.071 142.279L606.74 143.54L602.956 138.916C602.956 138.916 613.886 144.381 614.306 149.005C614.727 153.629 617.612 159.657 617.612 159.657L621.11 155.575C621.11 155.575 626.497 136.394 614.306 130.088Z" fill="#262628"/>
</g>
<defs>
<clipPath id="clip0">
<rect width="879.5" height="581.351" fill="white"/>
</clipPath>
</defs>
</svg>
